<svg xmlns="http://www.w3.org/2000/svg" width="1845" height="400" viewBox="0 0 1845 400" fill="none">
<g clip-path="url(#clip0_1664_7433)">
<path d="M165.509 186.279H185.749C192.503 186.279 199.344 186.279 206.009 186.279C210.527 186.604 214.813 184.236 216.937 180.24C223.906 168.091 230.932 155.984 238.015 143.921C240.122 140.744 240.189 136.635 238.187 133.391C230.99 120.955 223.734 108.491 216.42 95.9974C214.576 92.6587 211.007 90.64 207.193 90.7752H164.627C160.816 90.6307 157.247 92.6419 155.4 95.9759C148.23 108.354 141.06 120.697 133.891 133.004C131.781 136.346 131.781 140.601 133.891 143.943C140.903 156.078 147.922 168.198 154.948 180.305C157.011 184.174 161.127 186.502 165.509 186.279Z" fill="#38B3AB"/>
<path d="M219.324 225.477C217.381 221.714 213.429 219.417 209.193 219.589H167.832C163.87 219.381 160.127 221.415 158.153 224.854C150.983 237.232 143.814 249.598 136.644 261.946C134.641 265.185 134.691 269.288 136.773 272.477C143.742 284.469 150.733 296.482 157.637 308.516C159.537 312.295 163.476 314.606 167.703 314.428H209.128C213.513 314.703 217.637 312.333 219.604 308.411C226.272 296.718 232.94 285.006 239.845 273.445C242.467 269.617 242.467 264.572 239.845 260.744C232.897 249.118 226.1 237.232 219.324 225.477Z" fill="#38B3AB"/>
<path d="M441.856 177.704C412.044 126.299 382.203 74.908 352.334 23.5314C344.097 9.39056 331.644 2.29873 315.189 2.29873H135.654C119.049 2.29873 106.531 9.45508 98.2072 23.7893C75.1283 63.5467 51.877 103.132 29.1421 143.062C19.6568 159.695 7.82685 175.147 2.29889 193.865L2.14844 206.179C3.74378 211.703 5.90606 217.047 8.60106 222.125C38.6491 273.768 68.4605 325.344 98.5729 376.92C105.739 390.116 119.756 398.131 134.772 397.617H315.576C330.759 398.189 344.945 390.077 352.141 376.708C382.011 325.129 411.923 273.624 441.878 222.189C450.459 207.34 450.459 192.619 441.856 177.704ZM389.246 215.29C377.952 234.847 366.661 254.426 355.367 273.768C344.076 293.108 332.784 312.277 321.749 331.619C315.124 343.202 305.38 348.961 292.025 348.961H158.82C145.463 348.961 135.482 343.546 128.707 332.028C108.101 296.454 87.4886 260.886 66.8688 225.327L61.513 216.043C55.2832 206.222 55.1997 193.712 61.298 183.808C83.9111 144.795 106.567 105.811 129.266 66.8564C134.908 56.3867 146.048 50.0656 157.937 50.588C180.407 50.588 202.921 50.588 225.475 50.588H292.498C304.386 50.0437 315.537 56.3493 321.189 66.8134C344.033 106.012 366.775 145.268 389.416 184.581C395.15 194.034 395.083 205.903 389.246 215.29Z" fill="#38B3AB"/>
<path d="M330.46 160.533C328.619 157.031 324.932 154.892 320.974 155.032H278.366C274.414 154.91 270.738 157.055 268.902 160.555C261.997 172.59 255.073 184.624 247.996 196.572C245.555 200.198 245.555 204.94 247.996 208.566C255.051 220.535 261.975 232.548 268.902 244.583C270.751 248.243 274.593 250.46 278.689 250.234H299.767C306.887 250.234 313.835 250.234 320.869 250.234C324.971 250.445 328.817 248.234 330.697 244.583C337.73 232.462 344.721 220.299 351.777 208.178C353.886 204.837 353.886 200.581 351.777 197.239C344.7 184.99 337.558 172.761 330.46 160.533Z" fill="#38B3AB"/>
</g>

<path d="M1223.54 230.039C1223.54 226.133 1222.88 222.65 1221.58 219.59C1220.28 216.53 1218.13 213.796 1215.14 211.387C1212.21 208.913 1208.24 206.634 1203.22 204.551C1198.27 202.402 1192.09 200.286 1184.67 198.203C1177.57 196.185 1171.16 193.971 1165.43 191.562C1159.7 189.154 1154.79 186.387 1150.68 183.262C1146.65 180.137 1143.55 176.491 1141.41 172.324C1139.26 168.092 1138.18 163.177 1138.18 157.578C1138.18 152.109 1139.36 147.129 1141.7 142.637C1144.04 138.145 1147.33 134.271 1151.56 131.016C1155.86 127.76 1160.9 125.254 1166.7 123.496C1172.56 121.738 1178.97 120.859 1185.94 120.859C1195.9 120.859 1204.49 122.747 1211.72 126.523C1219.01 130.299 1224.64 135.41 1228.61 141.855C1232.65 148.236 1234.67 155.397 1234.67 163.34H1222.66C1222.66 157.155 1221.19 151.654 1218.26 146.836C1215.4 141.953 1211.23 138.145 1205.76 135.41C1200.36 132.611 1193.75 131.211 1185.94 131.211C1178.12 131.211 1171.55 132.415 1166.21 134.824C1160.94 137.168 1156.93 140.326 1154.2 144.297C1151.53 148.203 1150.2 152.565 1150.2 157.383C1150.2 160.768 1150.85 163.893 1152.15 166.758C1153.45 169.557 1155.57 172.194 1158.5 174.668C1161.49 177.077 1165.43 179.355 1170.31 181.504C1175.2 183.587 1181.22 185.573 1188.38 187.461C1195.93 189.544 1202.64 191.855 1208.5 194.395C1214.36 196.934 1219.3 199.863 1223.34 203.184C1227.38 206.439 1230.44 210.247 1232.52 214.609C1234.6 218.971 1235.64 224.049 1235.64 229.844C1235.64 235.638 1234.41 240.846 1231.93 245.469C1229.52 250.026 1226.11 253.9 1221.68 257.09C1217.32 260.28 1212.14 262.721 1206.15 264.414C1200.23 266.107 1193.75 266.953 1186.72 266.953C1180.4 266.953 1174.12 266.139 1167.87 264.512C1161.62 262.884 1155.89 260.378 1150.68 256.992C1145.54 253.542 1141.41 249.115 1138.28 243.711C1135.22 238.307 1133.69 231.862 1133.69 224.375H1145.61C1145.61 230.365 1146.81 235.41 1149.22 239.512C1151.63 243.613 1154.82 246.934 1158.79 249.473C1162.83 252.012 1167.25 253.867 1172.07 255.039C1176.95 256.146 1181.84 256.699 1186.72 256.699C1194.21 256.699 1200.68 255.592 1206.15 253.379C1211.69 251.165 1215.95 248.073 1218.95 244.102C1222.01 240.065 1223.54 235.378 1223.54 230.039ZM1309.28 122.812V265H1297.36V122.812H1309.28ZM1358.01 122.812V133.164H1248.73V122.812H1358.01ZM1466.99 122.812H1479V219.102C1479 229.779 1476.76 238.665 1472.27 245.762C1467.77 252.858 1461.72 258.164 1454.1 261.68C1446.55 265.195 1438.18 266.953 1429 266.953C1419.56 266.953 1411.07 265.195 1403.52 261.68C1395.96 258.164 1389.97 252.858 1385.55 245.762C1381.18 238.665 1379 229.779 1379 219.102V122.812H1390.92V219.102C1390.92 227.37 1392.55 234.303 1395.8 239.902C1399.06 245.501 1403.55 249.701 1409.28 252.5C1415.01 255.299 1421.58 256.699 1429 256.699C1436.36 256.699 1442.9 255.299 1448.63 252.5C1454.36 249.701 1458.85 245.501 1462.11 239.902C1465.36 234.303 1466.99 227.37 1466.99 219.102V122.812ZM1551.66 265H1519.43L1519.63 254.746H1551.66C1561.88 254.746 1570.67 252.467 1578.03 247.91C1585.45 243.288 1591.18 236.908 1595.21 228.77C1599.25 220.632 1601.27 211.191 1601.27 200.449V187.168C1601.27 178.965 1600.1 171.543 1597.75 164.902C1595.48 158.262 1592.19 152.598 1587.89 147.91C1583.59 143.158 1578.45 139.512 1572.46 136.973C1566.54 134.434 1559.9 133.164 1552.54 133.164H1518.85V122.812H1552.54C1561.39 122.812 1569.5 124.342 1576.86 127.402C1584.28 130.397 1590.69 134.759 1596.09 140.488C1601.56 146.152 1605.76 152.956 1608.69 160.898C1611.69 168.841 1613.18 177.695 1613.18 187.461V200.449C1613.18 210.215 1611.69 219.069 1608.69 227.012C1605.76 234.954 1601.56 241.758 1596.09 247.422C1590.62 253.086 1584.15 257.448 1576.66 260.508C1569.17 263.503 1560.84 265 1551.66 265ZM1524.8 122.812V265H1512.79V122.812H1524.8ZM1658.5 122.812V265H1646.48V122.812H1658.5ZM1802.15 186.289V201.523C1802.15 211.484 1800.85 220.501 1798.24 228.574C1795.7 236.582 1791.99 243.451 1787.11 249.18C1782.29 254.909 1776.5 259.303 1769.73 262.363C1762.96 265.423 1755.34 266.953 1746.88 266.953C1738.61 266.953 1731.05 265.423 1724.22 262.363C1717.45 259.303 1711.62 254.909 1706.74 249.18C1701.86 243.451 1698.08 236.582 1695.41 228.574C1692.74 220.501 1691.41 211.484 1691.41 201.523V186.289C1691.41 176.328 1692.71 167.344 1695.31 159.336C1697.98 151.263 1701.76 144.362 1706.64 138.633C1711.52 132.904 1717.35 128.509 1724.12 125.449C1730.89 122.389 1738.41 120.859 1746.68 120.859C1755.14 120.859 1762.76 122.389 1769.53 125.449C1776.3 128.509 1782.13 132.904 1787.01 138.633C1791.89 144.362 1795.64 151.263 1798.24 159.336C1800.85 167.344 1802.15 176.328 1802.15 186.289ZM1790.23 201.523V186.094C1790.23 177.695 1789.26 170.143 1787.3 163.438C1785.42 156.732 1782.58 151.003 1778.81 146.25C1775.1 141.497 1770.54 137.852 1765.14 135.312C1759.73 132.773 1753.58 131.504 1746.68 131.504C1739.97 131.504 1733.95 132.773 1728.61 135.312C1723.27 137.852 1718.72 141.497 1714.94 146.25C1711.23 151.003 1708.37 156.732 1706.35 163.438C1704.39 170.143 1703.42 177.695 1703.42 186.094V201.523C1703.42 209.987 1704.39 217.604 1706.35 224.375C1708.37 231.081 1711.26 236.842 1715.04 241.66C1718.82 246.413 1723.37 250.059 1728.71 252.598C1734.11 255.137 1740.17 256.406 1746.88 256.406C1753.84 256.406 1759.99 255.137 1765.33 252.598C1770.67 250.059 1775.2 246.413 1778.91 241.66C1782.62 236.842 1785.42 231.081 1787.3 224.375C1789.26 217.604 1790.23 209.987 1790.23 201.523Z" fill="#38B3AB"/>
<defs>
<clipPath id="clip0_1664_7433">
<rect width="449.147" height="400" fill="white"/>
</clipPath>
</defs>
</svg>